<?xml version="1.0" encoding="UTF-8"?>
<!DOCTYPE svg PUBLIC "-//W3C//DTD SVG 1.1//EN" "http://www.w3.org/Graphics/SVG/1.1/DTD/svg11.dtd">
<!-- Creator: CorelDRAW 2017 -->
<svg xmlns="http://www.w3.org/2000/svg" xml:space="preserve" width="100mm" height="100mm" version="1.1" style="shape-rendering:geometricPrecision; text-rendering:geometricPrecision; image-rendering:optimizeQuality; fill-rule:evenodd; clip-rule:evenodd"
viewBox="0 0 10000 10000"
 xmlns:xlink="http://www.w3.org/1999/xlink">
 <defs>
  <style type="text/css">
   <![CDATA[
    .fil0 {fill:white;fill-rule:nonzero}
   ]]>
  </style>
 </defs>
 <g id="Layer_x0020_1">
  <metadata id="CorelCorpID_0Corel-Layer"/>
  <g id="_1647035814160">
   <g>
    <path class="fil0" d="M3437 9035c-144,0 -261,-117 -261,-261l0 -84c0,-302 246,-549 549,-549l243 0 385 -894 -1640 0c-65,0 -118,-53 -118,-118 0,-65 53,-118 118,-118l6123 0c194,0 352,-158 352,-352l0 -426 -19 13c-98,68 -214,104 -333,104l-7672 0c-120,0 -235,-36 -333,-104l-19 -13 0 426c0,194 158,352 352,352l1029 0c65,0 118,53 118,118 0,65 -53,118 -118,118l-1029 0c-324,0 -588,-264 -588,-588l0 -5106c0,-324 264,-588 588,-588l7672 0c324,0 588,264 588,588l0 5106c0,324 -264,588 -588,588l-3189 0 385 894 243 0c302,0 549,246 549,549l0 84c0,144 -117,261 -261,261l-3127 0zm288 -658l0 0c-173,0 -313,140 -313,313l0 84c0,14 11,25 25,25l3127 0c14,0 25,-11 25,-25l0 -84c0,-173 -140,-313 -313,-313l-2551 0zm500 -235l0 0 1552 0 -385 -894 -782 0 -385 894zm-3060 -6940l0 0c-194,0 -352,158 -352,352l0 4209c0,194 158,352 352,352l7672 0c194,0 352,-158 352,-352l0 -4209c0,-194 -158,-352 -352,-352l-7672 0z"/>
   </g>
   <g>
    <path class="fil0" d="M5000 2706c-65,0 -118,-53 -118,-118l0 -478 -207 118c-18,10 -38,15 -58,15 -42,0 -82,-23 -102,-60 -32,-56 -12,-128 44,-161l383 -218c18,-10 38,-15 58,-15 15,0 29,3 43,8 8,3 16,8 159,89l239 136c27,16 47,41 55,71 8,30 4,62 -11,89 -21,37 -60,60 -102,60 -20,0 -40,-5 -58,-15l-207 -118 0 478c0,65 -53,118 -118,118z"/>
   </g>
   <g>
    <path class="fil0" d="M3488 5525c-21,0 -41,-6 -59,-16l-380 -222c-62,-35 -64,-60 -61,-328 1,-59 1,-130 1,-216 0,-65 53,-118 118,-118 65,0 118,53 118,118l0 237 414 -238c18,-10 38,-16 59,-16 42,0 81,23 102,59 16,27 20,59 12,89 -8,30 -28,56 -55,71l-415 239 206 120c56,33 75,105 42,161 -21,36 -60,58 -102,58z"/>
   </g>
   <g>
    <path class="fil0" d="M6512 5525c-42,0 -81,-22 -102,-58 -33,-56 -14,-128 42,-161l206 -120 -415 -239c-27,-16 -47,-41 -55,-71 -8,-30 -4,-62 12,-89 21,-36 60,-59 102,-59 20,0 41,5 59,16l414 238 0 -237c0,-65 53,-118 118,-118 65,0 118,53 118,118 -1,199 0,306 0,370 1,76 0,83 -4,99 -13,53 -47,72 -190,153 -59,34 -141,80 -246,143 -18,10 -38,16 -59,16z"/>
   </g>
   <g>
    <path class="fil0" d="M5000 5302c-21,0 -42,-5 -60,-16 -2,-1 -4,-3 -6,-4l-3 -2 -936 -540c-36,-21 -59,-60 -59,-102l0 -1083 0 -3c0,-2 0,-4 0,-6 0,-42 23,-81 59,-102l946 -546c18,-10 38,-16 59,-16 21,0 41,5 59,16l946 546c36,21 59,60 59,102 0,2 0,4 0,7l0 3 0 1082c0,42 -23,81 -59,102l-936 540c-4,3 -6,4 -8,6 -18,10 -38,16 -59,16l-1 0zm118 -1142l0 0 0 820 709 -409 0 -820 -709 409zm-946 410l0 0 709 409 0 -820 -709 -409 0 820zm117 -1024l0 0 710 410 710 -410 -710 -410 -710 410z"/>
   </g>
   <g>
    <path class="fil0" d="M1396 5269c-132,0 -239,-107 -239,-239l0 -3077c0,-132 107,-239 239,-239l606 0c132,0 239,107 239,239l0 3077c0,132 -107,239 -239,239l-606 0zm-4 -235l0 0 614 0 0 -3084 -614 0 0 3084z"/>
   </g>
   <g>
    <path class="fil0" d="M1650 2592c-65,0 -118,-53 -118,-118 0,-65 53,-118 118,-118l98 0c65,0 118,53 118,118 0,65 -53,118 -118,118l-98 0z"/>
   </g>
   <g>
    <path class="fil0" d="M1650 3271c-65,0 -118,-53 -118,-118 0,-65 53,-118 118,-118l98 0c65,0 118,53 118,118 0,65 -53,118 -118,118l-98 0z"/>
   </g>
   <g>
    <path class="fil0" d="M1650 3949c-65,0 -118,-53 -118,-118 0,-65 53,-118 118,-118l98 0c65,0 118,53 118,118 0,65 -53,118 -118,118l-98 0z"/>
   </g>
   <g>
    <path class="fil0" d="M1650 4627c-65,0 -118,-53 -118,-118 0,-65 53,-118 118,-118l98 0c65,0 118,53 118,118 0,65 -53,118 -118,118l-98 0z"/>
   </g>
   <g>
    <path class="fil0" d="M6982 3370c-113,0 -204,-92 -204,-204l0 -1413c0,-113 92,-204 204,-204l1667 0c113,0 204,92 204,204l0 1413c0,113 -92,204 -204,204l-1667 0zm31 -235l0 0 1605 0 0 -1351 -1605 0 0 1351z"/>
   </g>
   <g>
    <path class="fil0" d="M7399 2351c-65,0 -118,-53 -118,-118 0,-65 53,-118 118,-118l399 0c65,0 118,53 118,118 0,65 -53,118 -118,118l-399 0z"/>
   </g>
   <g>
    <path class="fil0" d="M7399 2802c-65,0 -118,-53 -118,-118 0,-65 53,-118 118,-118l832 0c65,0 118,53 118,118 0,65 -53,118 -118,118l-832 0z"/>
   </g>
  </g>
 </g>
</svg>
