<?xml version="1.0" encoding="UTF-8"?>
<!DOCTYPE svg PUBLIC "-//W3C//DTD SVG 1.1//EN" "http://www.w3.org/Graphics/SVG/1.1/DTD/svg11.dtd">
<!-- Creator: CorelDRAW 2017 -->
<svg xmlns="http://www.w3.org/2000/svg" xml:space="preserve" width="100mm" height="100mm" version="1.1" style="shape-rendering:geometricPrecision; text-rendering:geometricPrecision; image-rendering:optimizeQuality; fill-rule:evenodd; clip-rule:evenodd"
viewBox="0 0 10000 10000"
 xmlns:xlink="http://www.w3.org/1999/xlink">
 <defs>
  <style type="text/css">
   <![CDATA[
    .fil0 {fill:white;fill-rule:nonzero}
   ]]>
  </style>
 </defs>
 <g id="Layer_x0020_1">
  <metadata id="CorelCorpID_0Corel-Layer"/>
  <g id="_1646796228720">
   <path class="fil0" d="M4132 1200c-72,0 -131,-59 -131,-131 0,-72 59,-131 131,-131l2475 0c72,0 131,59 131,131 0,72 -59,131 -131,131l-2475 0z"/>
   <path class="fil0" d="M4132 1814c-72,0 -131,-59 -131,-131 0,-72 59,-131 131,-131l1102 0c72,0 131,59 131,131 0,72 -59,131 -131,131l-1102 0z"/>
   <path class="fil0" d="M3260 9838c-72,0 -131,-59 -131,-131 0,-380 309,-695 690,-702l13 0 0 -790 -1491 0c-72,0 -131,-59 -131,-131 0,-72 59,-131 131,-131l6888 0c149,0 271,-121 271,-270l0 -1198 -8997 0 0 1198c0,149 121,270 270,270l888 0c72,0 131,59 131,131 0,72 -59,131 -131,131l-888 0c-294,0 -533,-239 -533,-533l0 -5572c0,-294 239,-533 533,-533l770 0 0 -995c0,-232 189,-420 420,-420l6037 0c232,0 420,189 420,420l0 995 254 0c72,0 131,59 131,131 0,72 -59,131 -131,131l-254 0 0 4382 1079 0 0 -4111c0,-149 -121,-271 -271,-271 -72,0 -131,-59 -131,-131 0,-72 59,-131 131,-131 294,0 533,239 533,533l0 5572c0,294 -239,533 -533,533l-3059 0 0 790 13 0c380,7 690,322 690,702 0,72 -59,131 -131,131l-3481 0zm571 -571l0 0c-185,0 -351,117 -414,291l-6 18 3180 0 -6 -18c-63,-174 -229,-291 -414,-291l-2339 0zm262 -262l0 0 1814 0 0 -790 -1814 0 0 790zm-2289 -2783l0 0 6353 0 0 -3690 -4927 0c-72,0 -131,-59 -131,-131 0,-72 59,-131 131,-131l4927 0 0 -1687c0,-87 -71,-158 -158,-158l-6037 0c-87,0 -158,71 -158,158l0 1687 677 0c72,0 131,59 131,131 0,72 -59,131 -131,131l-677 0 0 3690zm-1032 -4382l0 0c-149,0 -270,121 -270,271l0 4111 1041 0 0 -4382 -770 0z"/>
   <path class="fil0" d="M5077 7640c-233,0 -423,-190 -423,-423 0,-233 190,-423 423,-423 233,0 423,190 423,423 0,233 -190,423 -423,423zm0 -583l0 0c-89,0 -161,72 -161,161 0,89 72,161 161,161 89,0 161,-72 161,-161 0,-89 -72,-161 -161,-161z"/>
   <path class="fil0" d="M2322 1844c-47,0 -90,-25 -114,-66 -23,-40 -23,-91 0,-131l475 -822c23,-40 67,-66 114,-66 47,0 90,25 114,66l475 822c23,40 23,91 0,131 -23,40 -67,66 -113,66l-949 0zm227 -262l0 0 495 0 -248 -429 -248 429z"/>
   <path class="fil0" d="M5630 3352c-72,0 -131,-59 -131,-131 0,-72 59,-131 131,-131l2089 0c72,0 131,59 131,131 0,72 -59,131 -131,131l-2089 0z"/>
   <path class="fil0" d="M5630 3986c-72,0 -131,-59 -131,-131 0,-72 59,-131 131,-131l2089 0c72,0 131,59 131,131 0,72 -59,131 -131,131l-2089 0z"/>
   <path class="fil0" d="M5630 4621c-72,0 -131,-59 -131,-131 0,-72 59,-131 131,-131l2089 0c72,0 131,59 131,131 0,72 -59,131 -131,131l-2089 0z"/>
   <path class="fil0" d="M5630 5255c-72,0 -131,-59 -131,-131 0,-72 59,-131 131,-131l2089 0c72,0 131,59 131,131 0,72 -59,131 -131,131l-2089 0z"/>
   <path class="fil0" d="M5630 5889c-72,0 -131,-59 -131,-131 0,-72 59,-131 131,-131l976 0c72,0 131,59 131,131 0,72 -59,131 -131,131l-976 0z"/>
   <path class="fil0" d="M2322 5889c-72,0 -131,-59 -131,-131l0 -2659c0,-72 59,-131 131,-131l2659 0c72,0 131,59 131,131l0 2659c0,72 -59,131 -131,131l-2659 0zm490 -1129l0 0c-11,0 -23,0 -35,1 -107,7 -214,42 -318,104l-6 4 0 757 2397 0 0 -591 -10 -3c-27,-7 -55,-12 -82,-15 -19,-2 -37,-3 -54,-3 -113,0 -179,46 -270,109 -100,69 -224,155 -424,172 -21,2 -43,3 -63,3 -280,0 -469,-156 -635,-294 -158,-131 -295,-244 -500,-244zm1 -262l0 0c298,0 493,161 666,304 158,131 282,234 468,234 14,0 28,-1 42,-2 130,-11 206,-64 295,-126 100,-69 224,-156 420,-156 27,0 55,2 83,5 16,2 32,4 48,7l15 3 0 -1537 -2397 0 0 1344 18 -7c95,-39 192,-61 290,-67 18,-1 35,-2 52,-2z"/>
   <path class="fil0" d="M4032 4435c-236,0 -428,-192 -428,-428 0,-236 192,-428 428,-428 236,0 428,192 428,428 0,236 -192,428 -428,428zm0 -594l0 0c-92,0 -166,74 -166,166 0,92 74,166 166,166 92,0 166,-74 166,-166 0,-92 -74,-166 -166,-166z"/>
  </g>
 </g>
</svg>
