<?xml version="1.0" encoding="UTF-8"?>
<!DOCTYPE svg PUBLIC "-//W3C//DTD SVG 1.1//EN" "http://www.w3.org/Graphics/SVG/1.1/DTD/svg11.dtd">
<!-- Creator: CorelDRAW 2017 -->
<svg xmlns="http://www.w3.org/2000/svg" xml:space="preserve" width="100mm" height="100mm" version="1.1" style="shape-rendering:geometricPrecision; text-rendering:geometricPrecision; image-rendering:optimizeQuality; fill-rule:evenodd; clip-rule:evenodd"
viewBox="0 0 10000 10000"
 xmlns:xlink="http://www.w3.org/1999/xlink">
 <defs>
  <style type="text/css">
   <![CDATA[
    .fil0 {fill:white;fill-rule:nonzero}
   ]]>
  </style>
 </defs>
 <g id="Layer_x0020_1">
  <metadata id="CorelCorpID_0Corel-Layer"/>
  <g id="_1647035856880">
   <path class="fil0" d="M7217 9601c-3,0 -7,0 -10,-1 -41,-7 -77,-34 -95,-72l-475 -950 -1570 -604c-34,-13 -61,-40 -75,-73l-1493 -3734c-19,-48 -8,-103 28,-140l498 -498c25,-25 57,-38 92,-38 17,0 33,3 48,9l3734 1493c34,14 60,41 73,75l604 1570 950 475c39,18 66,54 73,96 6,41 -8,84 -39,113l-2240 2240c-24,24 -58,39 -92,39 -5,0 -8,1 -11,1zm-325 -1098l0 0 373 746 1981 -1981 -746 -373 -1608 1608zm-3119 -4353l0 0 1440 3600 1485 571 1621 -1621 -571 -1485 -3600 -1440 -95 95 1876 1876 9 -6c142,-100 308,-153 481,-153 247,0 480,108 639,297 282,334 261,819 -48,1128 -158,158 -367,245 -591,245 -196,0 -387,-70 -538,-196 -334,-282 -396,-763 -144,-1120l6 -9 -1876 -1876 -95 95zm2646 1698l0 0c-153,0 -297,60 -405,168 -193,192 -223,497 -72,724 107,160 285,255 477,255 75,0 149,-15 218,-43 252,-104 397,-374 344,-641 -53,-267 -289,-462 -561,-462l0 0z"/>
   <path class="fil0" d="M3040 9600c-34,0 -68,-14 -92,-39l-632 -632c-50,-51 -50,-134 0,-185l252 -252 -7 -9c-918,-1221 -1106,-2848 -491,-4246l-21 -15 -838 835 4 8c92,189 35,415 -137,538 -73,52 -159,80 -249,80 -115,0 -223,-45 -304,-126 -149,-149 -168,-381 -46,-553 80,-113 211,-180 350,-180 66,0 129,15 188,43l8 4 1419 -1417 -6 -9c-193,-288 -155,-674 90,-919 137,-137 320,-213 514,-213 145,0 285,43 405,123l9 6 1417 -1419 -4 -8c-92,-188 -36,-414 134,-537 73,-53 160,-81 250,-81 114,0 221,44 302,124 149,148 170,379 49,551 -80,114 -211,182 -351,182 -64,0 -126,-14 -185,-42l-8 -4 -838 835 15 21c540,-237 1112,-357 1701,-357 913,0 1816,302 2545,851l9 7 252 -251c25,-25 57,-38 92,-38 35,0 68,14 92,38l632 632c24,24 38,58 38,93 0,35 -14,68 -38,93l-632 632c-25,25 -58,38 -92,38 -35,0 -68,-14 -92,-38l-636 -631c-25,-25 -38,-58 -38,-93 0,-35 13,-68 38,-92l197 -192 -13 -9c-687,-506 -1502,-774 -2355,-774 -809,0 -1588,243 -2254,702l-10 7 6 10c153,281 101,636 -126,862 -137,136 -319,211 -512,211 -122,0 -243,-31 -350,-90l-10 -6 -7 10c-961,1394 -932,3246 72,4609l9 12 194 -194c25,-24 58,-37 93,-37 35,0 68,13 93,37l630 635c51,51 51,134 0,185l-633 632c-25,25 -58,39 -93,39zm-445 -766l0 0 447 447 447 -447 -447 -447 -447 447zm-1765 -3747l0 0c-44,0 -86,17 -117,48 -56,68 -52,164 9,226 31,32 73,49 118,49 39,0 77,-14 107,-39 32,-32 49,-75 49,-118 0,-44 -18,-87 -49,-117 -32,-31 -73,-48 -117,-48zm2212 -2510l0 0c-122,0 -242,50 -329,137 -134,133 -173,332 -101,507 72,174 241,287 430,287 189,0 358,-113 430,-287 72,-174 33,-373 -101,-507 -86,-87 -206,-137 -329,-137zm5349 462l0 0 447 447 447 -447 -447 -447 -447 447zm-3138 -2376l0 0c-45,0 -87,18 -118,49 -31,31 -49,74 -49,117 0,44 17,86 49,117 32,32 74,49 118,49 22,0 43,-4 63,-13 63,-26 103,-86 103,-154 0,-68 -41,-128 -103,-154 -20,-8 -42,-13 -63,-13z"/>
  </g>
 </g>
</svg>
