<?xml version="1.0" encoding="UTF-8"?>
<!DOCTYPE svg PUBLIC "-//W3C//DTD SVG 1.1//EN" "http://www.w3.org/Graphics/SVG/1.1/DTD/svg11.dtd">
<!-- Creator: CorelDRAW -->
<svg xmlns="http://www.w3.org/2000/svg" xml:space="preserve" width="5mm" height="5mm" version="1.1" style="shape-rendering:geometricPrecision; text-rendering:geometricPrecision; image-rendering:optimizeQuality; fill-rule:evenodd; clip-rule:evenodd"
viewBox="0 0 500 500"
 xmlns:xlink="http://www.w3.org/1999/xlink"
 xmlns:xodm="http://www.corel.com/coreldraw/odm/2003">
 <defs>
  <style type="text/css">
   <![CDATA[
    .fil0 {fill:#FEFEFE}
   ]]>
  </style>
 </defs>
 <g id="Layer_x0020_1">
  <metadata id="CorelCorpID_0Corel-Layer"/>
  <g id="_1901227575088">
   <path class="fil0" d="M242.85 361.35c-61.29,0.07 -110.81,-49.47 -110.79,-110.81 0.03,-61.15 49.56,-110.62 110.74,-110.59 61.21,0.03 110.65,49.49 110.66,110.67 0,61.21 -49.4,110.67 -110.61,110.73zm-0.45 -182.83c-39.46,0.07 -71.9,32.62 -71.78,72.02 0.11,40.11 32.39,72.34 72.36,72.26 39.89,-0.09 71.99,-32.53 71.92,-72.71 -0.05,-39.46 -32.66,-71.65 -72.5,-71.57z"/>
   <path class="fil0" d="M357.73 161.53c-14.17,-0.02 -25.82,-11.65 -25.84,-25.83 -0.04,-14.22 11.49,-25.78 25.75,-25.83 14.32,-0.06 25.82,11.32 25.9,25.62 0.06,14.4 -11.49,26.07 -25.81,26.04z"/>
   <path class="fil0" d="M458.22 250.77l-0.51 0c0,26.16 0.21,52.33 -0.08,78.49 -0.2,17.84 -1.62,35.62 -6.98,52.8 -13.29,42.47 -42.06,68.34 -85.04,78.76 -14.68,3.55 -29.67,4.58 -44.69,4.72 -37.84,0.35 -75.68,0.54 -113.53,0.52 -18.78,-0.02 -37.57,-0.34 -56.34,-1.11 -22.87,-0.94 -44.98,-5.48 -65,-17.16 -28.04,-16.35 -45.19,-40.87 -52.97,-72.19 -3.69,-14.83 -5.06,-29.96 -5.17,-45.15 -0.35,-48.73 -0.59,-97.45 -0.45,-146.17 0.05,-16.22 0.66,-32.48 3.51,-48.54 6.23,-35.19 23.26,-63.28 54.39,-81.84 15.2,-9.07 31.95,-13.89 49.44,-16.06 21.05,-2.61 42.22,-2.75 63.37,-2.79 36.18,-0.07 72.35,-0.1 108.52,0.25 17.01,0.16 34.07,0.57 50.91,3.56 37.34,6.64 66.41,25.19 84.52,59.18 8.15,15.28 12.65,31.83 13.89,49.03 1.27,17.5 1.79,35.06 2.14,52.61 0.35,17.02 0.07,34.06 0.07,51.09zm-38.46 -47.66c-0.24,-20.09 -0.04,-40.24 -3.19,-60.16 -2.16,-13.59 -6.63,-26.35 -15.13,-37.42 -13.79,-17.98 -32.73,-26.78 -54.63,-29.12 -15.93,-1.7 -32.04,-2.44 -48.08,-2.62 -34.85,-0.39 -69.72,-0.29 -104.57,-0.11 -19.65,0.1 -39.36,0.06 -58.85,3.13 -13.5,2.13 -26.19,6.5 -37.26,14.84 -18.19,13.72 -27.03,32.72 -29.51,54.69 -1.69,14.97 -2.53,30.11 -2.6,45.19 -0.19,44.76 0.07,89.54 0.43,134.32 0.12,14.2 0.92,28.43 4.64,42.28 6.66,24.81 21.49,42.4 45.75,51.56 12.71,4.79 26.03,6.51 39.5,6.87 20.53,0.56 41.07,1.1 61.61,1.12 33.45,0.03 66.9,-0.11 100.35,-0.71 11.71,-0.21 23.56,-1.06 35.07,-3.16 32.34,-5.91 53.26,-24.77 61.55,-56.95 3.57,-13.88 4.08,-28.13 4.36,-42.34 0.49,-24.58 0.65,-49.16 0.94,-73.74l-0.34 0c0,-15.89 0.15,-31.79 -0.04,-47.67z"/>
  </g>
 </g>
</svg>
