<?xml version="1.0" encoding="UTF-8"?>
<!DOCTYPE svg PUBLIC "-//W3C//DTD SVG 1.1//EN" "http://www.w3.org/Graphics/SVG/1.1/DTD/svg11.dtd">
<!-- Creator: CorelDRAW 2017 -->
<svg xmlns="http://www.w3.org/2000/svg" xml:space="preserve" width="100mm" height="100mm" version="1.1" style="shape-rendering:geometricPrecision; text-rendering:geometricPrecision; image-rendering:optimizeQuality; fill-rule:evenodd; clip-rule:evenodd"
viewBox="0 0 10000 10000"
 xmlns:xlink="http://www.w3.org/1999/xlink">
 <defs>
  <style type="text/css">
   <![CDATA[
    .fil0 {fill:white;fill-rule:nonzero}
   ]]>
  </style>
 </defs>
 <g id="Layer_x0020_1">
  <metadata id="CorelCorpID_0Corel-Layer"/>
  <g id="_1647035853040">
   <path class="fil0" d="M4206 7559c-66,-1 -121,-50 -131,-115l-54 -362 -8 -3c-111,-38 -217,-85 -316,-140l-7 -4 -307 206c-23,15 -49,23 -76,23 -37,0 -71,-15 -96,-41l-600 -628c-45,-48 -50,-121 -11,-174l218 -297 -4 -7c-51,-106 -92,-214 -124,-322l-2 -8 -360 -71c-66,-13 -111,-71 -107,-139l22 -867c1,-66 49,-121 114,-131l365 -57 3 -8c24,-69 51,-136 83,-204 16,-35 35,-75 57,-114l4 -7 -202 -305c-36,-56 -27,-128 20,-173l628 -600c25,-24 58,-38 93,-38 29,0 56,9 80,26l296 217 7 -4c106,-52 215,-95 324,-126l8 -2 73 -362c12,-62 68,-107 135,-108l866 17c66,1 121,50 131,115l55 364 8 3c112,40 219,87 316,140l7 4 307 -205c22,-14 48,-22 75,-22 38,0 72,15 97,42l598 628c46,47 51,121 11,174l-218 296 4 7c50,102 92,208 126,324l2 8 359 73c64,13 110,70 108,136l-22 867c-1,66 -49,121 -114,131l-365 57 -3 8c-36,107 -83,214 -140,316l-4 7 202 307c36,56 28,128 -20,173l-628 600c-26,24 -59,38 -95,38 -29,0 -56,-9 -79,-26l-40 -31c-9,-5 -14,-8 -16,-10l-238 -176 -7 4c-110,53 -220,95 -326,126l-8 2 -73 362c-13,64 -67,108 -132,108l-870 -18zm-528 -916l0 0c25,0 50,7 71,20 135,83 277,146 424,188 51,14 88,56 97,110l50 333 641 13 67 -334c11,-50 51,-91 101,-104 152,-36 299,-93 436,-168 20,-11 42,-16 64,-16 29,0 57,9 80,26l270 200 465 -445 -187 -283c-30,-44 -31,-100 -3,-145 78,-125 142,-268 189,-424 14,-51 55,-87 108,-96l336 -53 16 -641 -329 -67c-51,-10 -91,-49 -104,-100 -40,-158 -96,-304 -168,-434 -25,-46 -21,-104 10,-146l201 -272 -441 -463 -281 189c-22,14 -48,22 -75,22 -25,0 -49,-7 -70,-19 -135,-81 -278,-144 -425,-187 -50,-15 -87,-57 -95,-110l-51 -334 -641 -13 -67 333c-10,51 -48,91 -98,104 -6,1 -12,3 -18,4 -159,43 -295,97 -418,166 -20,11 -42,16 -64,16 -29,0 -57,-9 -80,-26l-272 -200 -465 444 185 281c30,45 31,101 3,146 -32,55 -62,110 -90,170 -38,83 -71,169 -97,255 -14,51 -55,87 -108,96l-336 53 -22 644 331 66c52,10 93,49 105,101 36,148 92,294 167,434 25,45 21,101 -10,143l-201 273 442 463 283 -190c22,-15 48,-22 75,-22z"/>
   <path class="fil0" d="M4699 6253c-150,0 -294,-28 -429,-83 -441,-178 -726,-599 -724,-1074 0,-637 518,-1155 1155,-1155 637,0 1155,518 1155,1155 0,477 -286,898 -729,1074 -135,55 -279,83 -428,83zm2 -2042l0 0c-487,0 -885,397 -887,885 0,364 219,687 557,824 102,41 216,62 329,62 114,0 227,-22 327,-62 339,-135 559,-459 559,-824 0,-488 -397,-885 -885,-885z"/>
   <path class="fil0" d="M931 9763c-13,0 -28,-3 -46,-10 -2,-1 -4,-2 -5,-2 -3,-1 -6,-3 -9,-4 -7,-4 -17,-11 -27,-19 -1,-1 -3,-3 -6,-5 -1,-1 -3,-2 -4,-3 -8,-8 -19,-21 -25,-36l-685 -1532 0 -11 -4 0c-5,-14 -7,-26 -7,-40l0 -2 -1 -5 0 -5108c0,-246 200,-445 445,-445l236 0 0 -854c0,-456 372,-827 829,-827l383 0 0 -201c0,-231 188,-419 419,-419 243,0 433,184 433,419l0 201 608 0 0 -201c0,-231 188,-419 419,-419 243,0 433,184 433,419l0 201 608 0 0 -201c0,-231 188,-419 419,-419 243,0 433,184 433,419l0 201 608 0 0 -201c0,-231 187,-419 418,-419l15 0c230,0 418,188 418,419l0 201 384 0c457,0 829,372 829,829l0 3787 1210 -1210c26,-26 60,-40 95,-40 18,0 35,4 52,10 51,20 84,70 81,123l0 5272c0,74 -60,135 -135,135l-8823 0zm7415 -603l0 0c74,0 135,60 135,135l0 202 565 0 0 -202c0,-74 60,-135 135,-135 74,0 135,60 135,135l0 189 27 0 -14 12 295 0 0 -845 -221 0c-74,0 -135,-60 -135,-135 0,-74 60,-135 135,-135l221 0 0 -565 -221 0c-74,0 -135,-60 -135,-135 0,-74 60,-135 135,-135l221 0 0 -565 -221 0c-74,0 -135,-60 -135,-135 0,-74 60,-135 135,-135l221 0 0 -565 -221 0c-74,0 -135,-60 -135,-135 0,-74 60,-135 135,-135l221 0 0 -1193 -4812 4812 896 0 0 -202c0,-74 60,-135 135,-135 74,0 135,60 135,135l0 202 565 0 0 -202c0,-74 60,-135 135,-135 74,0 135,60 135,135l0 202 565 0 0 -202c0,-74 60,-135 135,-135 74,0 135,60 135,135l0 202 565 0 0 -202c0,-74 60,-135 135,-135zm-6719 -8031l0 0c-308,0 -559,250 -559,558l0 854 242 0c246,0 445,200 445,445l0 5109c0,20 -4,39 -11,57l-437 976 -165 368 3284 0 3757 -3754 0 -4058c0,-307 -250,-557 -558,-557l-384 0 0 224c0,231 -187,419 -418,419l-15 0c-230,0 -418,-188 -418,-419l0 -224 -608 0 0 224c0,231 -188,419 -419,419 -243,0 -433,-184 -433,-419l0 -224 -608 0 0 224c0,231 -188,419 -419,419 -243,0 -433,-184 -433,-419l0 -224 -608 0 0 225c0,231 -188,419 -419,419 -243,0 -433,-184 -433,-419l0 -224 -383 0zm-694 8173l0 0 70 -156 408 -912 -956 0 478 1068zm136 -1341l0 0 415 0 0 -3945 -415 0 0 3945zm-686 0l0 0 415 0 2 -14 0 -3931 -417 0 0 3945zm176 -5150l0 0c-97,0 -176,79 -176,176l0 758 1103 0 0 -758c0,-97 -79,-176 -176,-176l-751 0zm6247 -2301l0 0c-81,0 -146,66 -146,148l0 694c0,82 66,148 146,148l15 0c81,0 146,-66 146,-148l0 -694c0,-82 -66,-148 -146,-148l-15 0zm-1442 0l0 0c-93,0 -163,64 -163,148l0 694c0,82 66,148 148,148 93,0 163,-64 163,-148l0 -357 -1 -1c0,-1 1,-3 1,-4l0 -331c0,-82 -66,-148 -148,-148zm-1460 0l0 0c-93,0 -164,64 -164,148l0 694c0,82 66,148 148,148 93,0 163,-64 163,-148l0 -694c0,-82 -66,-148 -148,-148zm-1459 0l0 0c-93,0 -164,64 -164,148l0 694c0,82 66,148 148,148 93,0 163,-64 163,-148l0 -357 -1 -1c0,-1 1,-3 1,-4l0 -331c0,-82 -66,-148 -148,-148z"/>
   <path class="fil0" d="M6958 8662c-55,0 -104,-32 -125,-83 -21,-51 -10,-108 30,-147l1694 -1695c26,-26 60,-40 95,-40 18,0 35,4 52,11 50,21 83,70 84,125l0 1695c0,74 -60,135 -135,135l-1695 0zm324 -270l0 0 1235 0 0 -1233 -1235 1233z"/>
  </g>
 </g>
</svg>
